<svg width="1440" height="700" viewBox="0 0 1440 700" fill="none" xmlns="http://www.w3.org/2000/svg">
<rect width="1440" height="700" fill="#FB8B24"/>
<g clip-path="url(#clip0_233_541)">
<line x1="69.7474" y1="1.51679e-08" x2="69.7474" y2="694" stroke="#515052" stroke-opacity="0.3" stroke-width="0.694"/>
<line x1="139.148" y1="1.51679e-08" x2="139.148" y2="694" stroke="#515052" stroke-opacity="0.3" stroke-width="0.694"/>
<line x1="208.546" y1="1.51679e-08" x2="208.546" y2="694" stroke="#515052" stroke-opacity="0.3" stroke-width="0.694"/>
<line x1="277.947" y1="1.51679e-08" x2="277.947" y2="694" stroke="#515052" stroke-opacity="0.3" stroke-width="0.694"/>
<line x1="347.347" y1="1.51679e-08" x2="347.347" y2="694" stroke="#515052" stroke-opacity="0.3" stroke-width="0.694"/>
<line x1="486.148" y1="1.51679e-08" x2="486.148" y2="694" stroke="#515052" stroke-opacity="0.3" stroke-width="0.694"/>
<line x1="416.747" y1="1.51679e-08" x2="416.747" y2="694" stroke="#515052" stroke-opacity="0.3" stroke-width="0.694"/>
<line x1="555.546" y1="1.51679e-08" x2="555.546" y2="694" stroke="#515052" stroke-opacity="0.3" stroke-width="0.694"/>
<line x1="624.947" y1="1.51679e-08" x2="624.947" y2="694" stroke="#515052" stroke-opacity="0.3" stroke-width="0.694"/>
<line x1="694" y1="69.747" x2="-3.03357e-08" y2="69.747" stroke="#515052" stroke-opacity="0.3" stroke-width="0.694"/>
<line x1="694" y1="139.147" x2="-3.03357e-08" y2="139.147" stroke="#515052" stroke-opacity="0.3" stroke-width="0.694"/>
<line x1="694" y1="208.547" x2="-3.03357e-08" y2="208.547" stroke="#515052" stroke-opacity="0.3" stroke-width="0.694"/>
<line x1="694" y1="277.947" x2="-3.03357e-08" y2="277.947" stroke="#515052" stroke-opacity="0.3" stroke-width="0.694"/>
<line x1="694" y1="347.347" x2="-3.03357e-08" y2="347.347" stroke="#515052" stroke-opacity="0.3" stroke-width="0.694"/>
<line x1="694" y1="486.147" x2="-3.03357e-08" y2="486.147" stroke="#515052" stroke-opacity="0.3" stroke-width="0.694"/>
<line x1="694" y1="416.747" x2="-3.03357e-08" y2="416.747" stroke="#515052" stroke-opacity="0.3" stroke-width="0.694"/>
<line x1="694" y1="555.547" x2="-3.03357e-08" y2="555.547" stroke="#515052" stroke-opacity="0.3" stroke-width="0.694"/>
<line x1="694" y1="624.947" x2="-3.03357e-08" y2="624.947" stroke="#515052" stroke-opacity="0.3" stroke-width="0.694"/>
</g>
<g clip-path="url(#clip1_233_541)">
<line x1="694.747" y1="1.51679e-08" x2="694.747" y2="694" stroke="#515052" stroke-opacity="0.3" stroke-width="0.694"/>
<line x1="764.148" y1="1.51679e-08" x2="764.148" y2="694" stroke="#515052" stroke-opacity="0.3" stroke-width="0.694"/>
<line x1="833.546" y1="1.51679e-08" x2="833.546" y2="694" stroke="#515052" stroke-opacity="0.3" stroke-width="0.694"/>
<line x1="902.947" y1="1.51679e-08" x2="902.947" y2="694" stroke="#515052" stroke-opacity="0.3" stroke-width="0.694"/>
<line x1="972.347" y1="1.51679e-08" x2="972.347" y2="694" stroke="#515052" stroke-opacity="0.3" stroke-width="0.694"/>
<line x1="1111.15" y1="1.51679e-08" x2="1111.15" y2="694" stroke="#515052" stroke-opacity="0.3" stroke-width="0.694"/>
<line x1="1041.75" y1="1.51679e-08" x2="1041.75" y2="694" stroke="#515052" stroke-opacity="0.3" stroke-width="0.694"/>
<line x1="1180.55" y1="1.51679e-08" x2="1180.55" y2="694" stroke="#515052" stroke-opacity="0.3" stroke-width="0.694"/>
<line x1="1249.95" y1="1.51679e-08" x2="1249.95" y2="694" stroke="#515052" stroke-opacity="0.3" stroke-width="0.694"/>
<line x1="1319" y1="69.747" x2="625" y2="69.747" stroke="#515052" stroke-opacity="0.3" stroke-width="0.694"/>
<line x1="1319" y1="139.147" x2="625" y2="139.147" stroke="#515052" stroke-opacity="0.3" stroke-width="0.694"/>
<line x1="1319" y1="208.547" x2="625" y2="208.547" stroke="#515052" stroke-opacity="0.3" stroke-width="0.694"/>
<line x1="1319" y1="277.947" x2="625" y2="277.947" stroke="#515052" stroke-opacity="0.3" stroke-width="0.694"/>
<line x1="1319" y1="347.347" x2="625" y2="347.347" stroke="#515052" stroke-opacity="0.3" stroke-width="0.694"/>
<line x1="1319" y1="486.147" x2="625" y2="486.147" stroke="#515052" stroke-opacity="0.3" stroke-width="0.694"/>
<line x1="1319" y1="416.747" x2="625" y2="416.747" stroke="#515052" stroke-opacity="0.3" stroke-width="0.694"/>
<line x1="1319" y1="555.547" x2="625" y2="555.547" stroke="#515052" stroke-opacity="0.3" stroke-width="0.694"/>
<line x1="1319" y1="624.947" x2="625" y2="624.947" stroke="#515052" stroke-opacity="0.3" stroke-width="0.694"/>
</g>
<g clip-path="url(#clip2_233_541)">
<line x1="1319.75" y1="1.51679e-08" x2="1319.75" y2="694" stroke="#426B69" stroke-opacity="0.3" stroke-width="0.694"/>
<line x1="1389.15" y1="1.51679e-08" x2="1389.15" y2="694" stroke="#426B69" stroke-opacity="0.3" stroke-width="0.694"/>
<line x1="1944" y1="69.747" x2="1250" y2="69.747" stroke="#426B69" stroke-opacity="0.3" stroke-width="0.694"/>
<line x1="1944" y1="139.147" x2="1250" y2="139.147" stroke="#426B69" stroke-opacity="0.3" stroke-width="0.694"/>
<line x1="1944" y1="208.547" x2="1250" y2="208.547" stroke="#426B69" stroke-opacity="0.3" stroke-width="0.694"/>
<line x1="1944" y1="277.947" x2="1250" y2="277.947" stroke="#426B69" stroke-opacity="0.3" stroke-width="0.694"/>
<line x1="1944" y1="347.347" x2="1250" y2="347.347" stroke="#426B69" stroke-opacity="0.3" stroke-width="0.694"/>
<line x1="1944" y1="486.147" x2="1250" y2="486.147" stroke="#426B69" stroke-opacity="0.3" stroke-width="0.694"/>
<line x1="1944" y1="416.747" x2="1250" y2="416.747" stroke="#426B69" stroke-opacity="0.3" stroke-width="0.694"/>
<line x1="1944" y1="555.547" x2="1250" y2="555.547" stroke="#426B69" stroke-opacity="0.3" stroke-width="0.694"/>
<line x1="1944" y1="624.947" x2="1250" y2="624.947" stroke="#426B69" stroke-opacity="0.3" stroke-width="0.694"/>
</g>
<defs>
<clipPath id="clip0_233_541">
<rect width="700" height="700" fill="white"/>
</clipPath>
<clipPath id="clip1_233_541">
<rect width="700" height="700" fill="white" transform="translate(625)"/>
</clipPath>
<clipPath id="clip2_233_541">
<rect width="190" height="700" fill="white" transform="translate(1250)"/>
</clipPath>
</defs>
</svg>
