<svg width="238" height="85" viewBox="0 0 238 85" fill="none" xmlns="http://www.w3.org/2000/svg">
<g opacity="0.95">
<path d="M76.5763 27.0777L76.5763 5.40903H69.0717L69.0717 0.888611H89.5286L89.5286 5.40903H82.0078L82.0078 27.0777H76.5763V27.0777Z" fill="white"/>
<path d="M91.3674 2.73918C91.3674 1.16172 92.6283 3.05176e-05 94.1761 3.05176e-05C95.7239 3.05176e-05 96.9847 1.16172 96.9847 2.73918C96.9847 4.27995 95.7239 5.47833 94.1761 5.47833C92.6242 5.48241 91.3674 4.28403 91.3674 2.73918ZM91.5452 7.62237H96.7988L96.7988 27.0777H91.5452L91.5452 7.62237Z" fill="white"/>
<path d="M100.29 7.62237H105.366L105.366 11.1238H105.475C106.575 8.63732 108.535 7.33296 111.501 7.33296C115.785 7.33296 118.193 10.0558 118.193 14.6088L118.193 27.0777H112.94L112.94 15.7175C112.94 13.1781 111.772 11.727 109.375 11.727C106.999 11.727 105.544 13.4675 105.544 16.011L105.544 27.0818H100.29L100.29 7.62237V7.62237Z" fill="white"/>
<path d="M133.522 7.62236H139.479L132.12 15.9702L139.839 27.0777H133.793L128.268 19.1659L126.902 20.6537L126.902 27.0777H121.649L121.649 0.888611H126.902L126.902 15.424H126.975L133.522 7.62236Z" fill="white"/>
<path d="M158.044 21.1225C157.471 24.9133 153.979 27.4201 149.247 27.4201C143.346 27.4201 139.746 23.6293 139.746 17.4377C139.746 11.2297 143.362 7.27591 149.049 7.27591C154.646 7.27591 158.206 11.0341 158.206 16.9485L158.206 18.5627H144.91L144.91 18.8888C144.91 21.6279 146.693 23.4989 149.335 23.4989C151.223 23.4989 152.734 22.5899 153.223 21.1225H158.044ZM144.967 15.3181H153.155C153.045 12.8317 151.429 11.1971 149.105 11.1971C146.818 11.1971 145.145 12.8846 144.967 15.3181Z" fill="white"/>
<path d="M160.906 7.62237H165.982L165.982 11.1238H166.091C166.757 8.71069 168.41 7.38596 170.677 7.38596C171.288 7.38596 171.793 7.45933 172.173 7.58569L172.173 12.2488C171.74 12.0653 171.021 11.939 170.265 11.939C167.675 11.939 166.163 13.5368 166.163 16.276L166.163 27.0736H160.91L160.91 7.62237H160.906Z" fill="white"/>
<path d="M192.609 27.0777L192.609 15.155H178.36L178.36 27.0777H175.123L175.123 0.888611H178.36L178.36 12.2121H192.609L192.609 0.888611H195.847L195.847 27.0736H192.609L192.609 27.0777Z" fill="white"/>
<path d="M215.766 27.0777H212.796L212.796 23.939H212.723C211.571 26.1361 209.664 27.2611 206.786 27.2611C202.7 27.2611 200.308 24.5953 200.308 20.3113L200.308 8.20523H203.44L203.44 19.7488C203.44 22.814 204.863 24.4689 207.76 24.4689C210.799 24.4689 212.638 22.3657 212.638 19.1537L212.638 8.20116H215.77L215.77 27.0777H215.766Z" fill="white"/>
<path d="M223.036 23.882H222.964L222.964 27.0777H219.977L219.977 0.888611H223.109L223.109 11.2705H223.182C224.35 9.19981 226.528 8.02182 229.175 8.02182C233.887 8.02182 237.072 11.8697 237.072 17.6415C237.072 23.4295 233.887 27.2611 229.118 27.2611C226.382 27.257 224.241 26.0586 223.036 23.882ZM223.089 17.6374C223.089 21.7013 225.283 24.4608 228.504 24.4608C231.741 24.4608 233.867 21.795 233.867 17.6374C233.867 13.5001 231.745 10.814 228.504 10.814C225.283 10.814 223.089 13.5939 223.089 17.6374Z" fill="white"/>
<path d="M0.893793 1.38018C0.00518245 2.25079 0.00549975 2.35962 0.0227394 8.27252C0.039979 14.1854 0.0402962 14.2942 0.933984 15.1649C1.48222 15.7442 2.23825 16.0717 3.02746 16.0717H19.0448C35.9766 16.0717 36.3331 16.0717 37.2577 15.31C37.8407 14.8525 38.1811 14.1448 38.1789 13.3945L38.149 3.15051C38.1468 2.40024 37.8023 1.69253 37.2166 1.23508C36.2876 0.473296 35.9311 0.473297 18.9993 0.473297L2.98198 0.473297C2.19278 0.473297 1.43865 0.800807 0.893793 1.38018Z" fill="white"/>
<path d="M46.5206 1.38018C45.632 2.25079 45.6323 2.35962 45.6496 8.27252C45.6668 14.1854 45.6671 14.2942 46.5608 15.1649C47.419 16.0717 47.5259 16.0717 53.2649 16.0717C58.6475 16.0717 59.1819 15.9992 60.0711 15.31C60.6541 14.8525 60.9945 14.1448 60.9923 13.3945L60.9624 3.15051C60.9602 2.40024 60.6157 1.69253 60.03 1.23508C59.1369 0.545847 58.602 0.473297 53.2194 0.473297C47.4804 0.473297 47.3735 0.473296 46.5206 1.38018Z" fill="white"/>
<path d="M0.853276 24.1612C0.107037 24.9592 0.0725544 25.3583 0.0891594 31.0535C0.105447 36.6399 0.178326 37.184 0.821857 37.837C1.53689 38.5625 2.00029 38.5625 30.6953 38.5625C58.5348 38.5625 59.9249 38.5262 60.4578 37.9096C60.9551 37.3291 61.059 36.2772 61.0437 31.0172C61.0268 25.2494 60.954 24.7053 60.3104 24.0523C59.5954 23.3268 59.132 23.3268 30.6152 23.3268H2.7096C2.00234 23.3268 1.32861 23.6296 0.853276 24.1612Z" fill="white"/>
<path d="M1.63147 46.5431C0.349802 47.0872 0.0686534 48.4657 0.228688 54.4511C0.393377 62.0327 -0.642153 61.416 11.727 61.416C19.9256 61.416 21.5294 61.3435 22.2052 60.8356C22.9522 60.2915 22.9872 60.0738 22.9693 53.9433C22.9523 48.1029 22.8794 47.5588 22.2359 46.9058C21.5566 46.2166 21.0575 46.1803 12.0035 46.2166C6.72789 46.2166 2.09434 46.3617 1.63147 46.5431Z" fill="white"/>
<path d="M31.1837 47.1235C30.5089 47.9941 30.4393 48.5745 30.4546 53.7982C30.4698 59.0218 30.5428 59.6022 31.2226 60.4729C31.9382 61.416 32.0452 61.416 36.3227 61.416C42.4182 61.416 42.2407 61.6699 42.2174 53.6894C42.1946 45.8539 42.445 46.1803 36.3496 46.1803C31.9651 46.1803 31.8938 46.1803 31.1837 47.1235Z" fill="white"/>
<path d="M50.894 46.4705C49.8978 47.1235 49.6879 48.502 49.7037 53.907C49.7186 59.0218 49.7916 59.6022 50.4714 60.4729C51.187 61.3797 51.294 61.416 55.4646 61.416C61.3818 61.416 61.1332 61.7425 61.1101 53.7982C61.0869 45.8539 61.3018 46.1803 55.4915 46.1803C53.1745 46.1803 51.1074 46.3254 50.894 46.4705Z" fill="white"/>
</g>
<path d="M71.8623 60.8258V35.5178C72.445 35.4925 73.1037 35.4798 73.8383 35.4798C74.573 35.4798 75.333 35.4798 76.1183 35.4798C76.9037 35.4798 77.6763 35.4798 78.4363 35.4798C79.1963 35.4798 79.855 35.4925 80.4123 35.5178C83.4017 35.6191 85.5803 36.3538 86.9483 37.7218C88.3163 39.0645 89.0003 40.7871 89.0003 42.8898C89.0003 44.7391 88.519 46.3225 87.5563 47.6398C86.619 48.9318 85.3017 49.7931 83.6043 50.2238C84.187 50.6798 84.757 51.3005 85.3143 52.0858C85.8717 52.8458 86.619 53.9731 87.5563 55.4678C88.0377 56.2025 88.4303 56.8485 88.7343 57.4058C89.0637 57.9631 89.3803 58.5078 89.6843 59.0398C89.9883 59.5465 90.3303 60.1418 90.7103 60.8258H84.3263L80.0323 52.8458C79.551 51.9591 79.1203 51.4271 78.7403 51.2498C78.3603 51.0471 77.8283 50.9458 77.1443 50.9458V60.8258H71.8623ZM77.1443 46.7278H79.5003C80.8177 46.7278 81.8437 46.3985 82.5783 45.7398C83.313 45.0811 83.6803 44.1945 83.6803 43.0798C83.6803 41.0025 82.3883 39.9638 79.8043 39.9638H77.1443V46.7278ZM94.722 60.8258V35.5178H100.232V60.8258H94.722ZM112.384 60.8258V40.3058H105.468V35.5178H124.772V40.3058H117.932V60.8258H112.384Z" fill="white"/>
</svg>
