<svg width="136" height="72" viewBox="0 0 136 72" fill="none" xmlns="http://www.w3.org/2000/svg">
<path d="M13.9541 19.5589C13.9541 20.9598 13.5001 21.9586 12.5921 22.5552C11.7101 23.1259 10.2444 23.4113 8.195 23.4113C2.98069 23.4113 0.373535 20.7782 0.373535 15.512C0.373535 12.9697 0.931285 11.1019 2.04678 9.90857C3.39576 8.58554 5.67864 7.92402 8.89543 7.92402C12.2679 7.92402 13.9541 9.29894 13.9541 12.0488C13.9541 13.2421 13.4612 14.1371 12.4754 14.7338C11.749 15.1488 10.893 15.3564 9.90717 15.3564C8.97326 15.3564 8.195 15.0451 7.5724 14.4225C6.97574 13.7739 6.67741 12.8789 6.67741 11.7375C6.67741 10.8295 7.14436 9.83075 8.07827 8.74119C7.01465 8.74119 6.09371 9.51945 5.31546 11.076C4.64097 12.5028 4.30373 13.9814 4.30373 15.512C4.30373 17.302 4.66691 18.9234 5.39328 20.3761C6.11966 21.8548 6.88494 22.5941 7.68914 22.5941C6.98871 21.6602 6.63849 20.6874 6.63849 19.6757C6.63849 18.8974 6.91088 18.197 7.45566 17.5744C8.10421 16.7961 8.96029 16.407 10.0239 16.407C11.321 16.407 12.3198 16.7572 13.0202 17.4577C13.6428 18.0543 13.9541 18.7547 13.9541 19.5589ZM11.1524 12.2433C11.1524 9.90857 10.8022 8.74119 10.1017 8.74119C9.34942 8.74119 8.97326 9.86966 8.97326 12.1266C8.97326 13.8906 9.29753 14.7727 9.94608 14.7727C10.3352 14.7727 10.6465 14.4354 10.88 13.7609C11.0616 13.294 11.1524 12.7881 11.1524 12.2433ZM11.1913 19.9481C11.1913 17.8208 10.8022 16.7572 10.0239 16.7572C9.32347 16.7572 8.97326 17.7949 8.97326 19.8702C8.97326 21.7381 9.28456 22.672 9.90717 22.672C10.7632 22.672 11.1913 21.764 11.1913 19.9481Z" fill="#F5B9C0"/>
<path d="M43.9169 19.3644C43.9169 22.1142 41.7508 23.4891 37.4185 23.4891C36.744 23.4891 36.1863 23.3854 35.7453 23.1778C35.2264 22.9962 34.967 22.7757 34.967 22.5163C34.967 22.1531 35.2005 21.9715 35.6674 21.9715C35.849 21.9715 36.1474 22.0623 36.5624 22.2439C36.8997 22.4515 37.1591 22.5552 37.3407 22.5552C38.067 22.5552 38.6248 22.205 39.0139 21.5046C39.3512 20.9079 39.5198 20.1815 39.5198 19.3255C39.5198 18.3137 39.3252 17.4577 38.9361 16.7572C38.4432 15.953 37.8076 15.5509 37.0294 15.5509H36.757C36.8089 15.7585 36.8348 15.966 36.8348 16.1735C36.8348 17.7041 36.3808 19.1568 35.4729 20.5318C34.2017 22.5033 32.295 23.4891 29.7527 23.4891C28.8447 23.4891 28.1832 23.4632 27.7681 23.4113C27.4309 23.3335 26.8731 23.087 26.0949 22.672C25.3945 23.087 24.8497 23.3335 24.4605 23.4113C23.9936 23.4632 23.0856 23.4891 21.7367 23.4891C18.1567 23.4891 16.3667 22.0623 16.3667 19.2087C16.3667 17.0037 17.4044 15.5898 19.4797 14.9672C20.3098 14.7078 21.3346 14.617 22.5538 14.6948C22.6835 13.3718 22.9948 12.2433 23.4877 11.3094C24.707 9.05249 26.8083 7.92402 29.7916 7.92402C32.5933 7.92402 34.6038 9.03952 35.8231 11.2705C36.316 12.1785 36.6402 13.307 36.7959 14.6559H37.1461C39.2474 14.6559 40.778 14.8764 41.7378 15.3174C43.1906 16.0179 43.9169 17.3669 43.9169 19.3644ZM32.1264 14.617C32.1264 13.3199 31.9707 12.1655 31.6594 11.1538C31.2184 9.75292 30.5958 9.05249 29.7916 9.05249C28.9096 9.05249 28.2351 9.71401 27.7681 11.037C27.4568 12.0488 27.3012 13.2421 27.3012 14.617H32.1264ZM32.0874 15.5509H27.2623C27.2623 20.1945 28.1183 22.5163 29.8305 22.5163C31.3351 22.5163 32.0874 20.1945 32.0874 15.5509ZM25.3555 22.3218L24.4995 21.3489C23.8769 20.5966 23.4618 19.961 23.2542 19.4422C22.8911 18.5083 22.6706 17.2112 22.5927 15.5509C21.0622 16.0698 20.2969 17.1074 20.2969 18.664C20.2969 21.1544 21.6069 22.3996 24.2271 22.3996C24.5124 22.3996 24.8886 22.3736 25.3555 22.3218Z" fill="#F5B9C0"/>
<path d="M57.8866 15.8233C57.8866 17.9505 57.3808 19.7146 56.369 21.1155C55.2795 22.646 53.723 23.4113 51.6995 23.4113C47.9898 23.4113 46.135 21.8548 46.135 18.7418C46.135 17.315 46.7835 16.6016 48.0806 16.6016C49.1183 16.6016 49.7539 17.315 49.9873 18.7418C50.3505 21.2841 50.9991 22.5552 51.933 22.5552C53.4117 22.5552 54.151 20.2205 54.151 15.5509C54.151 13.8906 53.9824 12.4249 53.6451 11.1538C53.2041 9.57133 52.6334 8.7801 51.933 8.7801C50.9991 8.7801 50.3505 10.1161 49.9873 12.7881C49.8057 13.9814 49.1702 14.5781 48.0806 14.5781C46.7835 14.5781 46.135 13.8388 46.135 12.3601C46.135 10.8555 46.6927 9.70104 47.8082 8.89684C48.794 8.24829 50.0911 7.92402 51.6995 7.92402C55.8242 7.92402 57.8866 10.5571 57.8866 15.8233Z" fill="#F5B9C0"/>
<path d="M89.2503 15.5509C89.2503 18.1711 88.8482 20.0908 88.044 21.31C87.162 22.7368 85.6704 23.4502 83.5691 23.4502C81.5975 23.4502 80.2485 22.8406 79.5221 21.6213C78.9255 22.8406 77.6673 23.4502 75.7476 23.4502C71.9601 23.4502 70.0663 21.5435 70.0663 17.73V12.9049C70.0663 11.8412 69.8069 10.8944 69.2881 10.0642C68.6395 9.1822 67.8483 8.74119 66.9144 8.74119C64.6574 8.74119 63.529 10.9073 63.529 15.2396C63.529 16.1476 63.8922 17.2371 64.6185 18.5083C65.319 19.8054 65.6692 20.869 65.6692 21.6991C65.6692 22.8665 65.1633 23.4502 64.1516 23.4502C61.6093 23.4502 60.3381 20.7523 60.3381 15.3564C60.3381 13.2551 60.831 11.5299 61.8168 10.181C62.9842 8.65039 64.6834 7.88511 66.9144 7.88511C68.9638 7.88511 70.5462 8.42989 71.6617 9.51944C72.8032 10.5831 73.3739 11.9969 73.3739 13.7609V18.3137C73.3739 19.4811 73.5944 20.441 74.0354 21.1933C74.5543 22.1272 75.2806 22.5941 76.2146 22.5941C76.6296 22.5941 76.9928 22.4125 77.3041 22.0494C77.5895 21.7121 77.7321 21.323 77.7321 20.882V9.94749C77.7321 9.37676 77.9267 8.89684 78.3158 8.50771C78.7309 8.09264 79.1849 7.88511 79.6778 7.88511C80.1966 7.88511 80.6506 8.09264 81.0397 8.50771C81.4029 8.92278 81.5845 9.40271 81.5845 9.94749V20.882C81.5845 22.0234 82.0904 22.5941 83.1021 22.5941C84.0101 22.5941 84.7105 21.8548 85.2034 20.3761C85.6704 19.079 85.9038 17.4447 85.9038 15.4731C85.9038 14.3576 85.6444 13.1643 85.1256 11.8931C84.6327 10.7257 84.3862 9.83075 84.3862 9.20814C84.3862 8.94872 84.503 8.66336 84.7365 8.35206C84.9699 8.04076 85.2553 7.88511 85.5925 7.88511C88.0311 7.88511 89.2503 10.4404 89.2503 15.5509Z" fill="#F5B9C0"/>
<path d="M97.4998 3.25449C97.4998 4.57752 97.0459 5.65411 96.1379 6.48425C95.1002 7.39221 93.6734 7.8462 91.8575 7.8462C88.07 7.8462 86.1762 6.19889 86.1762 2.90427C86.1762 1.60718 86.9026 0.958633 88.3553 0.958633C89.4449 0.958633 89.9897 1.49044 89.9897 2.55406C89.9897 2.81348 89.9767 3.04695 89.9508 3.25449C89.8989 3.66956 89.8729 3.90303 89.8729 3.95492C89.8729 6.05621 90.5215 7.10685 91.8186 7.10685C93.3751 7.10685 94.0755 5.74491 93.9199 3.02101C93.9199 2.96913 93.8939 2.87833 93.842 2.74862C93.8161 2.61891 93.7902 2.51514 93.7642 2.43732C93.7123 2.02225 93.6864 1.80174 93.6864 1.7758C93.6864 1.23102 94.0885 0.958633 94.8927 0.958633C96.6048 0.958633 97.4739 1.72392 97.4998 3.25449Z" fill="#F5B9C0"/>
<path d="M135.051 19.3255C135.051 23.0611 134.143 25.759 132.327 27.4193C131.263 28.3273 130.2 28.7813 129.136 28.7813C128.799 28.7813 128.552 28.7164 128.397 28.5867C128.267 28.4829 128.228 28.3143 128.28 28.0808C128.332 27.8733 128.617 27.7695 129.136 27.7695C130.537 27.7695 131.237 24.903 131.237 19.1698C131.237 16.0568 130.991 13.7609 130.498 12.2823C129.797 9.92154 128.448 8.74119 126.451 8.74119C123.961 8.74119 122.365 10.6349 121.665 14.4225C121.379 15.7714 121.237 18.3656 121.237 22.205H124.155V13.9944C124.155 12.5936 124.843 11.8931 126.217 11.8931C127.411 11.8931 128.007 12.5157 128.007 13.7609V23.528C128.007 24.9808 127.463 26.213 126.373 27.2248C125.31 28.2624 124.09 28.7813 122.715 28.7813C121.133 28.7813 119.836 28.1068 118.824 26.7578C117.916 25.5645 117.462 24.3452 117.462 23.1H112.326C111.599 23.1 111.236 22.7498 111.236 22.0494C111.236 21.8418 111.366 21.2711 111.625 20.3372C111.911 19.4811 112.053 18.2878 112.053 16.7572C112.053 15.6677 111.846 14.6948 111.431 13.8388C111.016 12.9567 110.484 12.5157 109.835 12.5157C109.187 12.5157 108.694 13.0735 108.357 14.189C108.097 14.9672 107.967 15.8493 107.967 16.835C107.967 17.4836 108.019 18.1581 108.123 18.8585C108.253 19.7665 108.318 20.2983 108.318 20.4539C108.318 22.4515 107.915 23.4502 107.111 23.4502C105.14 23.4502 104.154 21.4657 104.154 17.4966C104.154 15.8363 104.569 14.4743 105.399 13.4107C106.385 12.1655 107.799 11.5429 109.641 11.5429C111.82 11.5429 113.454 12.2044 114.544 13.5275C115.4 14.5651 115.828 15.8752 115.828 17.4577C115.828 19.1698 115.192 20.7523 113.921 22.205H117.384C117.384 21.7899 117.371 21.3878 117.345 20.9987C117.345 20.7652 117.332 20.4799 117.306 20.1426C117.306 19.8054 117.306 19.5849 117.306 19.4811C117.306 11.7504 120.303 7.88511 126.295 7.88511C129.616 7.88511 131.977 9.01358 133.377 11.2705C134.493 13.0346 135.051 15.7195 135.051 19.3255ZM124.155 24.423V23.1H121.159C121.081 26.3687 121.548 28.003 122.56 28.003C123.079 28.003 123.494 27.5361 123.805 26.6022C124.038 25.9017 124.155 25.1754 124.155 24.423Z" fill="#F5B9C0"/>
<path d="M21.2697 66.6045C21.2697 67.9795 20.7249 69.1079 19.6354 69.99C18.5717 70.872 17.1579 71.313 15.3939 71.313C13.6039 71.313 12.1771 70.8201 11.1135 69.8343C10.1536 68.9004 9.67369 67.7849 9.67369 66.4878C9.67369 64.8275 10.4001 63.6083 11.8528 62.83H8.81761C8.03935 62.83 7.65023 62.5057 7.65023 61.8572C7.65023 61.5199 7.81885 60.8065 8.15609 59.717C8.49334 58.6274 8.66196 57.7065 8.66196 56.9542C8.66196 53.5558 7.93559 51.8566 6.48284 51.8566C5.60082 51.8566 5.00416 52.4273 4.69285 53.5688C4.5372 54.2692 4.45938 55.3977 4.45938 56.9542C4.45938 57.6287 4.58909 58.3939 4.84851 59.25C5.10792 60.1321 5.23763 60.9622 5.23763 61.7404C5.23763 62.7003 4.65394 63.1802 3.48656 63.1802C2.65642 63.1802 1.95599 62.5836 1.38527 61.3902C0.762663 60.171 0.451361 58.6923 0.451361 56.9542C0.451361 55.1123 0.99614 53.7114 2.0857 52.7516C3.14931 51.7917 4.628 51.3118 6.52175 51.3118C8.51928 51.3118 10.0369 51.9085 11.0746 53.1018C11.9566 54.1395 12.3976 55.4236 12.3976 56.9542C12.3976 58.7701 11.6972 60.4174 10.2963 61.8961H16.7558V49.5607C16.7558 48.4452 17.3395 47.7967 18.5069 47.6151C19.1295 47.5373 19.7002 47.7189 20.2191 48.1599C20.7638 48.6268 21.0362 49.1327 21.0362 49.6775V62.83H19.0517C20.5304 63.6083 21.2697 64.8664 21.2697 66.6045ZM17.6897 66.838C17.6897 64.7886 17.1968 63.4526 16.211 62.83H14.6934C13.8374 63.3748 13.4093 64.6978 13.4093 66.7991C13.4093 67.6811 13.5779 68.4594 13.9152 69.1339C14.3043 69.9381 14.8361 70.3402 15.5106 70.3402C16.9634 70.3402 17.6897 69.1728 17.6897 66.838ZM16.6002 65.0869C16.8855 65.4501 17.0282 65.9171 17.0282 66.4878C17.0282 67.0585 16.8855 67.5255 16.6002 67.8887C16.3148 68.2519 15.9646 68.4334 15.5495 68.4334C15.1085 68.4334 14.7453 68.2519 14.46 67.8887C14.1746 67.5255 14.0319 67.0585 14.0319 66.4878C14.0319 65.9171 14.1746 65.4501 14.46 65.0869C14.7453 64.6978 15.1085 64.5033 15.5495 64.5033C15.9905 64.5033 16.3407 64.6978 16.6002 65.0869Z" fill="#F5B9C0"/>
<path d="M57.7699 56.137C57.7699 60.8325 56.4469 63.1802 53.8008 63.1802C52.8928 63.1802 52.4388 62.7392 52.4388 61.8572C52.4388 61.5718 52.7242 60.6509 53.2949 59.0944C53.8138 57.6676 54.0732 56.3445 54.0732 55.1253C54.0732 53.6725 53.6711 52.2976 52.8669 51.0005C51.933 49.5737 50.7656 48.8603 49.3647 48.8603C47.8342 48.8603 46.563 49.3662 45.5513 50.3779C44.5395 51.3896 44.0337 52.7127 44.0337 54.347C46.8613 54.347 48.5865 54.4378 49.2091 54.6194C50.8694 55.1642 51.6995 56.5002 51.6995 58.6274C51.6995 59.9764 51.3104 61.0789 50.5321 61.935C49.702 62.7652 48.6384 63.1802 47.3413 63.1802C44.799 63.1802 43.1776 62.376 42.4772 60.7676C41.1801 62.402 39.2993 63.2191 36.8348 63.2191C35.9787 63.2191 35.3821 63.1802 35.0448 63.1024C34.7335 63.0246 34.2017 62.7911 33.4494 62.402C32.5414 62.9727 31.5297 63.258 30.4142 63.258C28.2351 63.258 26.7175 63.0635 25.8614 62.6744C24.4346 62.0517 23.7212 60.8065 23.7212 58.9387C23.7212 57.46 24.24 56.3056 25.2777 55.4755C26.2116 54.7232 27.4439 54.347 28.9744 54.347C29.182 54.347 29.4933 54.373 29.9083 54.4248C29.9343 52.4014 30.6347 50.767 32.0096 49.5218C33.3845 48.2766 35.0967 47.654 37.1461 47.654C40.1035 47.654 41.9843 48.575 42.7885 50.4168C43.7483 48.575 45.9404 47.654 49.3647 47.654C54.9682 47.654 57.7699 50.4817 57.7699 56.137ZM48.781 58.8998C48.781 56.4872 48.1844 55.2809 46.991 55.2809H44.0726V55.5144C44.0726 59.9505 45.0713 62.1685 47.0689 62.1685C48.2103 62.1685 48.781 61.0789 48.781 58.8998ZM39.4809 54.347C39.4809 53.1537 39.3382 52.0252 39.0528 50.9616C38.6378 49.5089 38.0022 48.7825 37.1461 48.7825C36.1863 48.7825 35.4988 49.4959 35.0837 50.9227C34.7984 51.9863 34.6557 53.1278 34.6557 54.347H39.4809ZM39.442 55.6311V55.2809H34.6168V55.5922C34.6168 60.0283 35.4729 62.2463 37.185 62.2463C38.6897 62.2463 39.442 60.0413 39.442 55.6311ZM32.7101 62.0517C31.6464 61.04 30.946 60.0283 30.6088 59.0166C30.2456 58.1605 30.0251 56.9153 29.9472 55.2809C29.2209 55.4885 28.6631 55.8776 28.274 56.4483C27.8589 57.019 27.6514 57.6676 27.6514 58.3939C27.6514 60.8844 28.9615 62.1296 31.5816 62.1296C31.9188 62.1296 32.295 62.1036 32.7101 62.0517Z" fill="#F5B9C0"/>
<path d="M77.8878 52.7127C77.8878 54.3211 77.2782 55.3588 76.0589 55.8257C77.2522 56.2408 77.8489 57.3822 77.8489 59.25C77.8489 60.8065 77.343 61.922 76.3313 62.5965C75.4752 63.1413 74.0873 63.4137 72.1676 63.4137L66.642 63.5304C64.8001 63.5823 63.8792 64.1141 63.8792 65.1259C63.8792 65.6966 64.0997 66.1246 64.5407 66.41C64.9298 66.6953 65.4227 66.838 66.0194 66.838C67.0571 66.838 67.9261 66.6435 68.6266 66.2543C69.7939 65.5798 70.4684 65.2167 70.65 65.1648C71.7655 64.7756 73.3999 64.5811 75.553 64.5811C76.0719 64.5811 76.5648 64.7886 77.0317 65.2037C77.4208 65.6188 77.5895 66.0987 77.5376 66.6435C77.3819 67.759 76.7204 68.3167 75.553 68.3167C72.0509 68.3167 68.5876 68.2778 65.1633 68.2C63.3733 68.2 62.2838 68.1351 61.8946 68.0054C60.8829 67.6682 60.377 66.7343 60.377 65.2037C60.377 63.4656 61.4277 62.5965 63.529 62.5965H64.3072C64.5407 62.6225 64.7612 62.6354 64.9687 62.6354L70.4944 62.7522C71.6358 62.7522 72.5178 62.4279 73.1404 61.7794C73.763 61.1568 74.0743 60.3007 74.0743 59.2111C74.0743 58.5107 73.9576 57.914 73.7241 57.4211C73.3869 56.7726 72.9329 56.4483 72.3622 56.4483C71.558 56.4483 71.1559 56.2927 71.1559 55.9814C71.1559 55.6441 71.3245 55.4625 71.6617 55.4366H72.5178C73.0107 55.4366 73.4128 55.0345 73.7241 54.2303C73.9576 53.6336 74.0743 53.037 74.0743 52.4403C74.0743 51.3507 73.5425 50.4298 72.4789 49.6775C71.4412 48.8992 70.3776 48.5101 69.2881 48.5101C68.2504 48.5101 67.2905 48.7436 66.4085 49.2105C65.3449 49.7294 64.6704 50.4298 64.3851 51.3118C64.7223 51.0265 65.2022 50.8838 65.8248 50.8838C67.1479 50.8838 68.1726 51.4286 68.8989 52.5181C69.5215 53.452 69.8328 54.6064 69.8328 55.9814C69.8328 57.927 69.4697 59.3149 68.7433 60.145C67.965 60.9752 66.655 61.3902 64.8131 61.3902C61.8038 61.3902 60.2992 59.3279 60.2992 55.2031C60.2992 52.7127 61.1812 50.793 62.9453 49.444C64.5537 48.2507 66.6679 47.654 69.2881 47.654C75.0212 47.654 77.8878 49.3402 77.8878 52.7127ZM66.642 56.3316C66.642 53.5039 66.1102 52.0901 65.0466 52.0901C64.5277 52.0901 64.1127 52.557 63.8014 53.4909C63.4901 54.2692 63.3344 54.9826 63.3344 55.6311C63.3344 56.6948 63.4252 57.6416 63.6068 58.4718C63.8403 59.9245 64.2554 60.6509 64.852 60.6509C65.5265 60.6509 66.0194 60.0802 66.3307 58.9387C66.5382 58.2124 66.642 57.3433 66.642 56.3316Z" fill="#F5B9C0"/>
<path d="M91.2738 57.2655C91.2738 59.0295 90.6901 60.4174 89.5227 61.4291C88.485 62.3631 87.2009 62.83 85.6703 62.83C84.0879 62.83 82.7908 62.2982 81.7791 61.2346C80.7933 60.1191 80.3004 58.6923 80.3004 56.9542C80.3004 55.3977 80.7933 54.0876 81.7791 53.024C82.7908 51.9863 84.1268 51.4675 85.7871 51.4675C87.603 51.4675 89.0039 52.0771 89.9897 53.2964C90.8458 54.3859 91.2738 55.709 91.2738 57.2655ZM87.4214 57.2266C87.4214 53.6985 86.8766 51.9344 85.7871 51.9344C84.6197 51.9344 84.036 53.7244 84.036 57.3044C84.036 60.6509 84.5938 62.3241 85.7093 62.3241C86.8507 62.3241 87.4214 60.6249 87.4214 57.2266Z" fill="#F5B9C0"/>
</svg>
